<svg width="28" height="28" viewBox="0 0 28 28" fill="none" xmlns="http://www.w3.org/2000/svg">
<path d="M15.9999 18.6667C15.7273 18.6672 15.4631 18.5723 15.2532 18.3983L8.25325 12.565C8.015 12.367 7.86517 12.0824 7.83672 11.7739C7.80828 11.4654 7.90355 11.1582 8.10158 10.92C8.29961 10.6817 8.58417 10.5319 8.89267 10.5035C9.20117 10.475 9.50833 10.5703 9.74658 10.7683L15.9999 15.995L22.2533 10.955C22.3726 10.8581 22.5099 10.7857 22.6573 10.742C22.8047 10.6984 22.9593 10.6843 23.1121 10.7005C23.265 10.7168 23.4131 10.7631 23.5481 10.8368C23.683 10.9105 23.802 11.0101 23.8983 11.13C24.0051 11.25 24.086 11.3907 24.1359 11.5434C24.1859 11.6961 24.2037 11.8574 24.1884 12.0173C24.173 12.1772 24.1249 12.3322 24.0468 12.4727C23.9688 12.6131 23.8626 12.7359 23.7349 12.8333L16.7349 18.4683C16.519 18.6148 16.2602 18.6846 15.9999 18.6667Z" fill="#5855D6"/>
</svg>
