<svg width="61" height="61" viewBox="0 0 61 61" fill="none" xmlns="http://www.w3.org/2000/svg">
<g clip-path="url(#clip0_12:32)">
<g filter="url(#filter0_d_12:32)">
<path d="M0 0H56V39C56 44.5228 51.5228 49 46 49H10C4.47715 49 0 44.5228 0 39V0Z" fill="#5855D6"/>
</g>
<path d="M12.3113 35.1484C12.254 35.7552 12.03 36.2292 11.6394 36.5703C11.2488 36.9089 10.7292 37.0781 10.0808 37.0781C9.62766 37.0781 9.22792 36.9714 8.88156 36.7578C8.53781 36.5417 8.27219 36.2357 8.08469 35.8398C7.89719 35.444 7.79953 34.9844 7.79172 34.4609V33.9297C7.79172 33.3932 7.88677 32.9206 8.07688 32.5117C8.26698 32.1029 8.53912 31.7878 8.89328 31.5664C9.25005 31.3451 9.66151 31.2344 10.1277 31.2344C10.7553 31.2344 11.2605 31.4049 11.6433 31.7461C12.0261 32.0872 12.2488 32.569 12.3113 33.1914H11.3269C11.28 32.7826 11.1602 32.4883 10.9675 32.3086C10.7774 32.1263 10.4974 32.0352 10.1277 32.0352C9.69797 32.0352 9.36724 32.1927 9.13547 32.5078C8.9063 32.8203 8.78912 33.2799 8.78391 33.8867V34.3906C8.78391 35.0052 8.89328 35.474 9.11203 35.7969C9.33339 36.1198 9.6563 36.2812 10.0808 36.2812C10.4688 36.2812 10.7605 36.194 10.9558 36.0195C11.1511 35.8451 11.2748 35.5547 11.3269 35.1484H12.3113ZM14.2017 33.2344C14.5116 32.875 14.9035 32.6953 15.3775 32.6953C16.2785 32.6953 16.7356 33.2096 16.7486 34.2383V37H15.7994V34.2734C15.7994 33.9818 15.7356 33.776 15.608 33.6562C15.483 33.5339 15.2981 33.4727 15.0533 33.4727C14.6731 33.4727 14.3892 33.6419 14.2017 33.9805V37H13.2525V31H14.2017V33.2344ZM19.7328 37.0781C19.1313 37.0781 18.643 36.8893 18.268 36.5117C17.8956 36.1315 17.7094 35.6263 17.7094 34.9961V34.8789C17.7094 34.457 17.7901 34.0807 17.9516 33.75C18.1156 33.4167 18.3448 33.1576 18.6391 32.9727C18.9333 32.7878 19.2615 32.6953 19.6234 32.6953C20.199 32.6953 20.643 32.8789 20.9555 33.2461C21.2706 33.6133 21.4281 34.1328 21.4281 34.8047V35.1875H18.6664C18.6951 35.5365 18.8109 35.8125 19.0141 36.0156C19.2198 36.2188 19.4776 36.3203 19.7875 36.3203C20.2224 36.3203 20.5766 36.1445 20.85 35.793L21.3617 36.2812C21.1924 36.5339 20.9659 36.7305 20.682 36.8711C20.4008 37.0091 20.0844 37.0781 19.7328 37.0781ZM19.6195 33.457C19.3591 33.457 19.1482 33.5482 18.9867 33.7305C18.8279 33.9128 18.7263 34.1667 18.682 34.4922H20.4906V34.4219C20.4698 34.1042 20.3852 33.8646 20.2367 33.7031C20.0883 33.5391 19.8826 33.457 19.6195 33.457ZM24.0647 36.3203C24.3017 36.3203 24.4983 36.2513 24.6545 36.1133C24.8108 35.9753 24.8941 35.8047 24.9045 35.6016H25.7991C25.7886 35.8646 25.7066 36.1107 25.553 36.3398C25.3993 36.5664 25.191 36.7461 24.928 36.8789C24.6649 37.0117 24.3811 37.0781 24.0764 37.0781C23.4853 37.0781 23.0165 36.8867 22.6702 36.5039C22.3238 36.1211 22.1506 35.5924 22.1506 34.918V34.8203C22.1506 34.1771 22.3225 33.6628 22.6663 33.2773C23.01 32.8893 23.4788 32.6953 24.0725 32.6953C24.5751 32.6953 24.984 32.8424 25.2991 33.1367C25.6168 33.4284 25.7834 33.8125 25.7991 34.2891H24.9045C24.8941 34.0469 24.8108 33.8477 24.6545 33.6914C24.5009 33.5352 24.3043 33.457 24.0647 33.457C23.7574 33.457 23.5204 33.569 23.3538 33.793C23.1871 34.0143 23.1024 34.3516 23.0998 34.8047V34.957C23.0998 35.4154 23.1819 35.7578 23.3459 35.9844C23.5126 36.2083 23.7522 36.3203 24.0647 36.3203ZM28.0489 35.1875L27.627 35.6211V37H26.6778V31H27.627V34.4609L27.9239 34.0898L29.0919 32.7734H30.2325L28.6622 34.5352L30.4005 37H29.3028L28.0489 35.1875ZM32.7987 37.0781C32.1972 37.0781 31.7089 36.8893 31.3339 36.5117C30.9615 36.1315 30.7753 35.6263 30.7753 34.9961V34.8789C30.7753 34.457 30.856 34.0807 31.0175 33.75C31.1816 33.4167 31.4107 33.1576 31.705 32.9727C31.9993 32.7878 32.3274 32.6953 32.6894 32.6953C33.2649 32.6953 33.7089 32.8789 34.0214 33.2461C34.3365 33.6133 34.4941 34.1328 34.4941 34.8047V35.1875H31.7323C31.761 35.5365 31.8769 35.8125 32.08 36.0156C32.2857 36.2188 32.5435 36.3203 32.8534 36.3203C33.2883 36.3203 33.6425 36.1445 33.9159 35.793L34.4277 36.2812C34.2584 36.5339 34.0318 36.7305 33.748 36.8711C33.4667 37.0091 33.1503 37.0781 32.7987 37.0781ZM32.6855 33.457C32.4251 33.457 32.2141 33.5482 32.0527 33.7305C31.8938 33.9128 31.7922 34.1667 31.748 34.4922H33.5566V34.4219C33.5357 34.1042 33.4511 33.8646 33.3027 33.7031C33.1542 33.5391 32.9485 33.457 32.6855 33.457ZM35.2166 34.8555C35.2166 34.2044 35.3676 33.6823 35.6697 33.2891C35.9718 32.8932 36.3767 32.6953 36.8845 32.6953C37.3324 32.6953 37.6944 32.8516 37.9705 33.1641V31H38.9197V37H38.0603L38.0134 36.5625C37.7296 36.9062 37.3507 37.0781 36.8767 37.0781C36.3819 37.0781 35.9809 36.8789 35.6736 36.4805C35.3689 36.082 35.2166 35.5404 35.2166 34.8555ZM36.1658 34.9375C36.1658 35.3672 36.2478 35.7031 36.4119 35.9453C36.5785 36.1849 36.8142 36.3047 37.1189 36.3047C37.5069 36.3047 37.7908 36.1315 37.9705 35.7852V33.9805C37.796 33.6419 37.5147 33.4727 37.1267 33.4727C36.8194 33.4727 36.5824 33.5951 36.4158 33.8398C36.2491 34.082 36.1658 34.4479 36.1658 34.9375ZM43.3569 37H42.3725V31.3125H43.3569V37ZM45.5208 32.7734L45.5481 33.2617C45.8606 32.8841 46.2708 32.6953 46.7786 32.6953C47.6588 32.6953 48.1067 33.1992 48.1223 34.207V37H47.1731V34.2617C47.1731 33.9935 47.1145 33.7956 46.9973 33.668C46.8828 33.5378 46.694 33.4727 46.4309 33.4727C46.0481 33.4727 45.763 33.6458 45.5755 33.9922V37H44.6263V32.7734H45.5208Z" fill="white"/>
<path d="M34.0466 10.482C34.3749 10.1694 34.8118 9.99662 35.2652 10.0001C35.7185 10.0035 36.1527 10.1829 36.4763 10.5004C36.7998 10.8179 36.9874 11.2487 36.9994 11.7019C37.0114 12.155 36.8468 12.5951 36.5405 12.9293L27.2408 24.5598C27.0809 24.732 26.8879 24.8703 26.6733 24.9662C26.4588 25.0621 26.2271 25.1138 25.9921 25.1182C25.7571 25.1225 25.5236 25.0795 25.3057 24.9915C25.0877 24.9036 24.8897 24.7726 24.7236 24.6064L18.5564 18.4392C18.3846 18.2792 18.2469 18.0862 18.1513 17.8718C18.0558 17.6573 18.0044 17.4259 18.0003 17.1911C17.9961 16.9564 18.0393 16.7233 18.1272 16.5056C18.2151 16.288 18.346 16.0902 18.512 15.9242C18.678 15.7582 18.8757 15.6274 19.0934 15.5395C19.311 15.4515 19.5442 15.4084 19.7789 15.4125C20.0136 15.4167 20.2451 15.468 20.4595 15.5636C20.674 15.6591 20.8669 15.7969 21.027 15.9686L25.9076 20.8469L34.0023 10.5333C34.0169 10.5153 34.0324 10.4982 34.0489 10.482H34.0466Z" fill="#4ED964"/>
</g>
<defs>
<filter id="filter0_d_12:32" x="-8" y="-7" width="76" height="69" filterUnits="userSpaceOnUse" color-interpolation-filters="sRGB">
<feFlood flood-opacity="0" result="BackgroundImageFix"/>
<feColorMatrix in="SourceAlpha" type="matrix" values="0 0 0 0 0 0 0 0 0 0 0 0 0 0 0 0 0 0 127 0" result="hardAlpha"/>
<feOffset dx="2" dy="3"/>
<feGaussianBlur stdDeviation="5"/>
<feColorMatrix type="matrix" values="0 0 0 0 0 0 0 0 0 0 0 0 0 0 0 0 0 0 0.25 0"/>
<feBlend mode="normal" in2="BackgroundImageFix" result="effect1_dropShadow_12:32"/>
<feBlend mode="normal" in="SourceGraphic" in2="effect1_dropShadow_12:32" result="shape"/>
</filter>
<clipPath id="clip0_12:32">
<rect width="61" height="61" fill="white"/>
</clipPath>
</defs>
</svg>
