<svg width="53" height="75" viewBox="0 0 53 75" fill="none" xmlns="http://www.w3.org/2000/svg">
<path d="M5.64023 68.1172C7.11484 68.1172 8.24277 67.2432 8.51132 65.8955L8.52109 65.8467H7.63242L7.61777 65.8906C7.31015 66.8184 6.62656 67.3066 5.64023 67.3066C4.23886 67.3066 3.32578 66.1885 3.32578 64.4746V64.4697C3.32578 62.7559 4.23398 61.6475 5.64023 61.6475C6.63144 61.6475 7.3248 62.1455 7.59824 63L7.63242 63.1074H8.52109L8.51132 63.0586C8.24277 61.7256 7.10507 60.8369 5.64023 60.8369C3.67734 60.8369 2.42245 62.2529 2.42245 64.4697V64.4746C2.42245 66.6914 3.68222 68.1172 5.64023 68.1172ZM11.5338 68.0977C12.9352 68.0977 13.8824 67.082 13.8824 65.4609V65.4512C13.8824 63.8301 12.9303 62.8242 11.5289 62.8242C10.1275 62.8242 9.18027 63.835 9.18027 65.4512V65.4609C9.18027 67.0771 10.1227 68.0977 11.5338 68.0977ZM11.5387 67.3457C10.6402 67.3457 10.0494 66.6572 10.0494 65.4609V65.4512C10.0494 64.2646 10.6451 63.5762 11.5289 63.5762C12.4273 63.5762 13.0133 64.2598 13.0133 65.4512V65.4609C13.0133 66.6523 12.4322 67.3457 11.5387 67.3457ZM14.7418 68H15.5914V64.8164C15.5914 64.1084 16.0797 63.5762 16.7535 63.5762C17.3834 63.5762 17.7935 63.9814 17.7935 64.5967V68H18.6432V64.7725C18.6432 64.0791 19.1168 63.5762 19.7906 63.5762C20.4596 63.5762 20.8453 63.9912 20.8453 64.6895V68H21.6949V64.4941C21.6949 63.4834 21.0455 62.8242 20.0396 62.8242C19.3268 62.8242 18.731 63.1904 18.4478 63.8008H18.4283C18.2086 63.1807 17.6959 62.8242 17.0025 62.8242C16.3482 62.8242 15.8404 63.1611 15.6109 63.6641H15.5914V62.9219H14.7418V68ZM22.7789 69.709H23.6285V67.1504H23.648C23.9654 67.7363 24.5562 68.0977 25.274 68.0977C26.5484 68.0977 27.4176 67.0674 27.4176 65.4658V65.4609C27.4176 63.8594 26.5582 62.8242 25.2594 62.8242C24.5318 62.8242 23.9654 63.1904 23.648 63.7812H23.6285V62.9219H22.7789V69.709ZM25.0934 67.3457C24.2389 67.3457 23.6236 66.5986 23.6236 65.4658V65.4609C23.6236 64.3232 24.234 63.5762 25.0934 63.5762C25.9918 63.5762 26.5484 64.2939 26.5484 65.4609V65.4658C26.5484 66.623 25.9918 67.3457 25.0934 67.3457ZM28.3209 68H29.1705V60.9541H28.3209V68ZM32.4078 68.0977C33.5162 68.0977 34.3463 67.4336 34.5123 66.5938L34.5221 66.5449H33.6871L33.6725 66.5889C33.526 67.0234 33.0719 67.3457 32.4273 67.3457C31.524 67.3457 30.9478 66.7354 30.9283 65.6904H34.5855V65.3779C34.5855 63.8545 33.7408 62.8242 32.3541 62.8242C30.9674 62.8242 30.0689 63.9033 30.0689 65.4756V65.4805C30.0689 67.0771 30.9478 68.0977 32.4078 68.0977ZM32.3492 63.5762C33.0914 63.5762 33.6383 64.04 33.7213 65.0264H30.943C31.0357 64.0791 31.6119 63.5762 32.3492 63.5762ZM37.0953 68.0977C37.2613 68.0977 37.442 68.0781 37.5494 68.0635V67.375C37.4762 67.3799 37.3785 67.3945 37.276 67.3945C36.8219 67.3945 36.5826 67.2432 36.5826 66.7012V63.625H37.5494V62.9219H36.5826V61.5498H35.7037V62.9219H34.9615V63.625H35.7037V66.7061C35.7037 67.6777 36.1627 68.0977 37.0953 68.0977ZM38.941 62.0625C39.2389 62.0625 39.4732 61.8232 39.4732 61.5303C39.4732 61.2324 39.2389 60.998 38.941 60.998C38.648 60.998 38.4088 61.2324 38.4088 61.5303C38.4088 61.8232 38.648 62.0625 38.941 62.0625ZM38.5162 68H39.3658V62.9219H38.5162V68ZM42.6275 68.0977C44.0289 68.0977 44.9762 67.082 44.9762 65.4609V65.4512C44.9762 63.8301 44.024 62.8242 42.6227 62.8242C41.2213 62.8242 40.274 63.835 40.274 65.4512V65.4609C40.274 67.0771 41.2164 68.0977 42.6275 68.0977ZM42.6324 67.3457C41.734 67.3457 41.1432 66.6572 41.1432 65.4609V65.4512C41.1432 64.2646 41.7389 63.5762 42.6227 63.5762C43.5211 63.5762 44.107 64.2598 44.107 65.4512V65.4609C44.107 66.6523 43.526 67.3457 42.6324 67.3457ZM45.8355 68H46.6852V65.0117C46.6852 64.1475 47.2076 63.5762 48.0084 63.5762C48.7896 63.5762 49.1754 64.0303 49.1754 64.8555V68H50.025V64.7041C50.025 63.5469 49.3805 62.8242 48.2672 62.8242C47.4957 62.8242 46.9781 63.1709 46.7047 63.6445H46.6852V62.9219H45.8355V68Z" fill="#9592A6"/>
<ellipse cx="26.786" cy="26" rx="22.056" ry="22" stroke="#EBEBEB" stroke-width="8"/>
<path d="M26.786 4C31.1483 4 35.4126 5.29028 39.0397 7.70767C42.6668 10.1251 45.4938 13.561 47.1631 17.581C48.8325 21.6009 49.2693 26.0244 48.4182 30.292C47.5672 34.5596 45.4666 38.4796 42.382 41.5563" stroke="#5855D6" stroke-width="8" stroke-linecap="round"/>
<path d="M17.8924 30V28.248H15.6124C15.2764 28.248 14.9764 28.172 14.7124 28.02C14.4484 27.868 14.2364 27.668 14.0764 27.42C13.9244 27.164 13.8484 26.884 13.8484 26.58C13.8484 26.42 13.8644 26.264 13.8964 26.112C13.9364 25.952 13.9924 25.8 14.0644 25.656L16.1644 21.6H18.3364L15.9124 26.208C15.8724 26.288 15.8524 26.352 15.8524 26.4C15.8524 26.512 15.9164 26.568 16.0444 26.568H17.8924V23.928H19.8364V26.568H20.9044V28.248H19.8364V30H17.8924ZM21.712 30V28.284H24.58C24.884 28.284 25.136 28.18 25.336 27.972C25.544 27.764 25.648 27.516 25.648 27.228C25.648 26.932 25.544 26.684 25.336 26.484C25.136 26.284 24.884 26.184 24.58 26.184H21.988V21.6H27.064V23.316H23.872V24.54H24.808C25.336 24.54 25.808 24.66 26.224 24.9C26.648 25.14 26.98 25.468 27.22 25.884C27.468 26.292 27.592 26.748 27.592 27.252C27.592 27.748 27.468 28.208 27.22 28.632C26.98 29.048 26.648 29.38 26.224 29.628C25.808 29.876 25.336 30 24.808 30H21.712ZM30.6585 26.124C30.2585 26.124 29.8985 26.044 29.5785 25.884C29.2665 25.716 29.0185 25.492 28.8345 25.212C28.6505 24.924 28.5585 24.604 28.5585 24.252V23.316C28.5585 22.972 28.6505 22.66 28.8345 22.38C29.0185 22.092 29.2665 21.868 29.5785 21.708C29.8985 21.54 30.2585 21.456 30.6585 21.456C31.0505 21.456 31.4065 21.54 31.7265 21.708C32.0465 21.868 32.2985 22.092 32.4825 22.38C32.6665 22.66 32.7585 22.972 32.7585 23.316V24.252C32.7585 24.604 32.6625 24.924 32.4705 25.212C32.2865 25.492 32.0345 25.716 31.7145 25.884C31.4025 26.044 31.0505 26.124 30.6585 26.124ZM30.0705 30L35.6625 21.6H37.0665L31.4745 30H30.0705ZM30.6705 24.888C30.8625 24.888 31.0345 24.82 31.1865 24.684C31.3385 24.54 31.4145 24.36 31.4145 24.144V23.424C31.4145 23.208 31.3385 23.028 31.1865 22.884C31.0345 22.74 30.8625 22.668 30.6705 22.668C30.4625 22.668 30.2825 22.74 30.1305 22.884C29.9865 23.028 29.9145 23.208 29.9145 23.424V24.144C29.9145 24.36 29.9865 24.54 30.1305 24.684C30.2825 24.82 30.4625 24.888 30.6705 24.888ZM36.5025 30.144C36.1025 30.144 35.7425 30.064 35.4225 29.904C35.1025 29.736 34.8505 29.512 34.6665 29.232C34.4825 28.944 34.3905 28.624 34.3905 28.272V27.336C34.3905 26.992 34.4825 26.68 34.6665 26.4C34.8505 26.112 35.1025 25.888 35.4225 25.728C35.7425 25.56 36.1025 25.476 36.5025 25.476C36.8945 25.476 37.2465 25.56 37.5585 25.728C37.8785 25.888 38.1305 26.112 38.3145 26.4C38.5065 26.68 38.6025 26.992 38.6025 27.336V28.272C38.6025 28.624 38.5065 28.944 38.3145 29.232C38.1305 29.512 37.8785 29.736 37.5585 29.904C37.2385 30.064 36.8865 30.144 36.5025 30.144ZM36.5025 28.908C36.7025 28.908 36.8745 28.84 37.0185 28.704C37.1705 28.56 37.2465 28.38 37.2465 28.164V27.444C37.2465 27.228 37.1705 27.048 37.0185 26.904C36.8745 26.76 36.7025 26.688 36.5025 26.688C36.2945 26.688 36.1145 26.76 35.9625 26.904C35.8185 27.048 35.7465 27.228 35.7465 27.444V28.164C35.7465 28.38 35.8185 28.56 35.9625 28.704C36.1145 28.84 36.2945 28.908 36.5025 28.908Z" fill="#9592A6"/>
</svg>
