<svg width="53" height="75" viewBox="0 0 53 75" fill="none" xmlns="http://www.w3.org/2000/svg">
<path d="M5.64023 68.1172C7.11484 68.1172 8.24277 67.2432 8.51132 65.8955L8.52109 65.8467H7.63242L7.61777 65.8906C7.31015 66.8184 6.62656 67.3066 5.64023 67.3066C4.23886 67.3066 3.32578 66.1885 3.32578 64.4746V64.4697C3.32578 62.7559 4.23398 61.6475 5.64023 61.6475C6.63144 61.6475 7.3248 62.1455 7.59824 63L7.63242 63.1074H8.52109L8.51132 63.0586C8.24277 61.7256 7.10507 60.8369 5.64023 60.8369C3.67734 60.8369 2.42245 62.2529 2.42245 64.4697V64.4746C2.42245 66.6914 3.68222 68.1172 5.64023 68.1172ZM11.5338 68.0977C12.9352 68.0977 13.8824 67.082 13.8824 65.4609V65.4512C13.8824 63.8301 12.9303 62.8242 11.5289 62.8242C10.1275 62.8242 9.18027 63.835 9.18027 65.4512V65.4609C9.18027 67.0771 10.1227 68.0977 11.5338 68.0977ZM11.5387 67.3457C10.6402 67.3457 10.0494 66.6572 10.0494 65.4609V65.4512C10.0494 64.2646 10.6451 63.5762 11.5289 63.5762C12.4273 63.5762 13.0133 64.2598 13.0133 65.4512V65.4609C13.0133 66.6523 12.4322 67.3457 11.5387 67.3457ZM14.7418 68H15.5914V64.8164C15.5914 64.1084 16.0797 63.5762 16.7535 63.5762C17.3834 63.5762 17.7935 63.9814 17.7935 64.5967V68H18.6432V64.7725C18.6432 64.0791 19.1168 63.5762 19.7906 63.5762C20.4596 63.5762 20.8453 63.9912 20.8453 64.6895V68H21.6949V64.4941C21.6949 63.4834 21.0455 62.8242 20.0396 62.8242C19.3268 62.8242 18.731 63.1904 18.4478 63.8008H18.4283C18.2086 63.1807 17.6959 62.8242 17.0025 62.8242C16.3482 62.8242 15.8404 63.1611 15.6109 63.6641H15.5914V62.9219H14.7418V68ZM22.7789 69.709H23.6285V67.1504H23.648C23.9654 67.7363 24.5562 68.0977 25.274 68.0977C26.5484 68.0977 27.4176 67.0674 27.4176 65.4658V65.4609C27.4176 63.8594 26.5582 62.8242 25.2594 62.8242C24.5318 62.8242 23.9654 63.1904 23.648 63.7812H23.6285V62.9219H22.7789V69.709ZM25.0934 67.3457C24.2389 67.3457 23.6236 66.5986 23.6236 65.4658V65.4609C23.6236 64.3232 24.234 63.5762 25.0934 63.5762C25.9918 63.5762 26.5484 64.2939 26.5484 65.4609V65.4658C26.5484 66.623 25.9918 67.3457 25.0934 67.3457ZM28.3209 68H29.1705V60.9541H28.3209V68ZM32.4078 68.0977C33.5162 68.0977 34.3463 67.4336 34.5123 66.5938L34.5221 66.5449H33.6871L33.6725 66.5889C33.526 67.0234 33.0719 67.3457 32.4273 67.3457C31.524 67.3457 30.9478 66.7354 30.9283 65.6904H34.5855V65.3779C34.5855 63.8545 33.7408 62.8242 32.3541 62.8242C30.9674 62.8242 30.0689 63.9033 30.0689 65.4756V65.4805C30.0689 67.0771 30.9478 68.0977 32.4078 68.0977ZM32.3492 63.5762C33.0914 63.5762 33.6383 64.04 33.7213 65.0264H30.943C31.0357 64.0791 31.6119 63.5762 32.3492 63.5762ZM37.0953 68.0977C37.2613 68.0977 37.442 68.0781 37.5494 68.0635V67.375C37.4762 67.3799 37.3785 67.3945 37.276 67.3945C36.8219 67.3945 36.5826 67.2432 36.5826 66.7012V63.625H37.5494V62.9219H36.5826V61.5498H35.7037V62.9219H34.9615V63.625H35.7037V66.7061C35.7037 67.6777 36.1627 68.0977 37.0953 68.0977ZM38.941 62.0625C39.2389 62.0625 39.4732 61.8232 39.4732 61.5303C39.4732 61.2324 39.2389 60.998 38.941 60.998C38.648 60.998 38.4088 61.2324 38.4088 61.5303C38.4088 61.8232 38.648 62.0625 38.941 62.0625ZM38.5162 68H39.3658V62.9219H38.5162V68ZM42.6275 68.0977C44.0289 68.0977 44.9762 67.082 44.9762 65.4609V65.4512C44.9762 63.8301 44.024 62.8242 42.6227 62.8242C41.2213 62.8242 40.274 63.835 40.274 65.4512V65.4609C40.274 67.0771 41.2164 68.0977 42.6275 68.0977ZM42.6324 67.3457C41.734 67.3457 41.1432 66.6572 41.1432 65.4609V65.4512C41.1432 64.2646 41.7389 63.5762 42.6227 63.5762C43.5211 63.5762 44.107 64.2598 44.107 65.4512V65.4609C44.107 66.6523 43.526 67.3457 42.6324 67.3457ZM45.8355 68H46.6852V65.0117C46.6852 64.1475 47.2076 63.5762 48.0084 63.5762C48.7896 63.5762 49.1754 64.0303 49.1754 64.8555V68H50.025V64.7041C50.025 63.5469 49.3805 62.8242 48.2672 62.8242C47.4957 62.8242 46.9781 63.1709 46.7047 63.6445H46.6852V62.9219H45.8355V68Z" fill="#9592A6"/>
<ellipse cx="26.786" cy="26" rx="22.056" ry="22" stroke="#EBEBEB" stroke-width="8"/>
<path d="M26.786 4C31.1483 4 35.4126 5.29028 39.0397 7.70767C42.6668 10.1251 45.4938 13.561 47.1631 17.581C48.8325 21.6009 49.2693 26.0244 48.4182 30.292" stroke="#5855D6" stroke-width="8" stroke-linecap="round"/>
<path d="M15.6191 30C15.0911 30 14.6671 29.84 14.3471 29.52C14.0351 29.2 13.8791 28.808 13.8791 28.344C13.8791 28.072 13.9471 27.808 14.0831 27.552C14.2271 27.296 14.4151 27.084 14.6471 26.916L17.1671 25.116C17.4951 24.884 17.6591 24.588 17.6591 24.228C17.6591 23.948 17.5671 23.728 17.3831 23.568C17.1991 23.4 16.9551 23.316 16.6511 23.316H14.2871V21.6H16.8431C17.3951 21.6 17.8751 21.72 18.2831 21.96C18.6991 22.192 19.0191 22.508 19.2431 22.908C19.4751 23.3 19.5911 23.74 19.5911 24.228C19.5911 24.708 19.4911 25.136 19.2911 25.512C19.0991 25.88 18.7831 26.208 18.3431 26.496L16.0871 28.008C16.0311 28.048 16.0031 28.096 16.0031 28.152C16.0031 28.24 16.0591 28.284 16.1711 28.284H19.7951V30H15.6191ZM24.1554 30.144C23.5074 30.144 22.9314 30.028 22.4274 29.796C21.9234 29.564 21.5314 29.248 21.2514 28.848C20.9714 28.448 20.8314 28 20.8314 27.504C20.8314 27.12 20.9314 26.764 21.1314 26.436C21.3394 26.108 21.6074 25.836 21.9354 25.62C21.6474 25.428 21.4194 25.188 21.2514 24.9C21.0914 24.604 21.0114 24.28 21.0114 23.928C21.0114 23.472 21.1434 23.056 21.4074 22.68C21.6714 22.304 22.0394 22.008 22.5114 21.792C22.9834 21.568 23.5314 21.456 24.1554 21.456C24.7794 21.456 25.3274 21.568 25.7994 21.792C26.2714 22.008 26.6394 22.304 26.9034 22.68C27.1674 23.056 27.2994 23.472 27.2994 23.928C27.2994 24.28 27.2154 24.604 27.0474 24.9C26.8874 25.188 26.6674 25.428 26.3874 25.62C26.7154 25.836 26.9794 26.108 27.1794 26.436C27.3874 26.764 27.4914 27.12 27.4914 27.504C27.4914 28 27.3474 28.448 27.0594 28.848C26.7794 29.248 26.3874 29.564 25.8834 29.796C25.3874 30.028 24.8114 30.144 24.1554 30.144ZM24.1554 24.864C24.5154 24.864 24.8034 24.78 25.0194 24.612C25.2354 24.436 25.3434 24.228 25.3434 23.988C25.3434 23.756 25.2354 23.556 25.0194 23.388C24.8034 23.212 24.5154 23.124 24.1554 23.124C23.8034 23.124 23.5194 23.212 23.3034 23.388C23.0874 23.556 22.9794 23.756 22.9794 23.988C22.9794 24.228 23.0874 24.436 23.3034 24.612C23.5194 24.78 23.8034 24.864 24.1554 24.864ZM24.1554 28.44C24.5634 28.44 24.8914 28.344 25.1394 28.152C25.3954 27.952 25.5234 27.708 25.5234 27.42C25.5234 27.132 25.3954 26.892 25.1394 26.7C24.8914 26.5 24.5634 26.4 24.1554 26.4C23.7554 26.4 23.4274 26.5 23.1714 26.7C22.9234 26.892 22.7994 27.132 22.7994 27.42C22.7994 27.708 22.9234 27.952 23.1714 28.152C23.4274 28.344 23.7554 28.44 24.1554 28.44ZM30.6878 26.124C30.2878 26.124 29.9278 26.044 29.6078 25.884C29.2958 25.716 29.0478 25.492 28.8638 25.212C28.6798 24.924 28.5878 24.604 28.5878 24.252V23.316C28.5878 22.972 28.6798 22.66 28.8638 22.38C29.0478 22.092 29.2958 21.868 29.6078 21.708C29.9278 21.54 30.2878 21.456 30.6878 21.456C31.0798 21.456 31.4358 21.54 31.7558 21.708C32.0758 21.868 32.3278 22.092 32.5118 22.38C32.6958 22.66 32.7878 22.972 32.7878 23.316V24.252C32.7878 24.604 32.6918 24.924 32.4998 25.212C32.3158 25.492 32.0638 25.716 31.7438 25.884C31.4318 26.044 31.0798 26.124 30.6878 26.124ZM30.0998 30L35.6918 21.6H37.0958L31.5038 30H30.0998ZM30.6998 24.888C30.8918 24.888 31.0638 24.82 31.2158 24.684C31.3678 24.54 31.4438 24.36 31.4438 24.144V23.424C31.4438 23.208 31.3678 23.028 31.2158 22.884C31.0638 22.74 30.8918 22.668 30.6998 22.668C30.4918 22.668 30.3118 22.74 30.1598 22.884C30.0158 23.028 29.9438 23.208 29.9438 23.424V24.144C29.9438 24.36 30.0158 24.54 30.1598 24.684C30.3118 24.82 30.4918 24.888 30.6998 24.888ZM36.5318 30.144C36.1318 30.144 35.7718 30.064 35.4518 29.904C35.1318 29.736 34.8798 29.512 34.6958 29.232C34.5118 28.944 34.4198 28.624 34.4198 28.272V27.336C34.4198 26.992 34.5118 26.68 34.6958 26.4C34.8798 26.112 35.1318 25.888 35.4518 25.728C35.7718 25.56 36.1318 25.476 36.5318 25.476C36.9238 25.476 37.2758 25.56 37.5878 25.728C37.9078 25.888 38.1598 26.112 38.3438 26.4C38.5358 26.68 38.6318 26.992 38.6318 27.336V28.272C38.6318 28.624 38.5358 28.944 38.3438 29.232C38.1598 29.512 37.9078 29.736 37.5878 29.904C37.2678 30.064 36.9158 30.144 36.5318 30.144ZM36.5318 28.908C36.7318 28.908 36.9038 28.84 37.0478 28.704C37.1998 28.56 37.2758 28.38 37.2758 28.164V27.444C37.2758 27.228 37.1998 27.048 37.0478 26.904C36.9038 26.76 36.7318 26.688 36.5318 26.688C36.3238 26.688 36.1438 26.76 35.9918 26.904C35.8478 27.048 35.7758 27.228 35.7758 27.444V28.164C35.7758 28.38 35.8478 28.56 35.9918 28.704C36.1438 28.84 36.3238 28.908 36.5318 28.908Z" fill="#9592A6"/>
</svg>
